<svg width="140" height="140" viewBox="0 0 140 140" fill="none" xmlns="http://www.w3.org/2000/svg">
<circle cx="70" cy="70" r="68" stroke="#2B788B" stroke-width="4"/>
<path d="M87.961 38.0479C87.8905 37.6249 87.7301 37.2219 87.4907 36.8661C87.2513 36.5103 86.9383 36.21 86.573 35.9854C86.2077 35.7608 85.7984 35.6171 85.3729 35.564C84.9473 35.511 84.5153 35.5498 84.106 35.6779L63.106 42.2389C62.4954 42.4295 61.9617 42.8103 61.5828 43.3257C61.2039 43.8412 60.9997 44.4642 61 45.1039V69.4999C59.6484 68.4862 57.9941 67.9585 56.3051 68.0024C54.6162 68.0463 52.9915 68.6592 51.6944 69.7417C50.3973 70.8243 49.5037 72.3131 49.1583 73.967C48.813 75.6208 49.0362 77.3428 49.7918 78.854C50.5474 80.3651 51.7911 81.5769 53.3213 82.293C54.8516 83.009 56.5788 83.1874 58.2232 82.7992C59.8675 82.4111 61.3326 81.4791 62.3811 80.1543C63.4296 78.8294 64 77.1894 64 75.4999V54.1039L85 47.5399V56.0689C86.029 56.1589 87.034 56.3479 88 56.6209V38.5399C88 38.3719 87.985 38.2099 87.961 38.0479ZM97 72.4999C97 76.0803 95.5777 79.5141 93.0459 82.0458C90.5142 84.5776 87.0804 85.9999 83.5 85.9999C79.9196 85.9999 76.4858 84.5776 73.9541 82.0458C71.4223 79.5141 70 76.0803 70 72.4999C70 68.9195 71.4223 65.4857 73.9541 62.9539C76.4858 60.4222 79.9196 58.9999 83.5 58.9999C87.0804 58.9999 90.5142 60.4222 93.0459 62.9539C95.5777 65.4857 97 68.9195 97 72.4999ZM90.211 71.1949L81.229 66.2449C81.0008 66.1186 80.7435 66.0541 80.4827 66.0576C80.2219 66.0611 79.9665 66.1326 79.7418 66.265C79.517 66.3974 79.3307 66.586 79.2011 66.8124C79.0716 67.0388 79.0033 67.295 79.003 67.5559V77.4559C79.0028 77.717 79.0707 77.9736 79.2 78.2004C79.3294 78.4272 79.5157 78.6163 79.7405 78.749C79.9653 78.8817 80.2209 78.9535 80.482 78.9571C80.743 78.9608 81.0005 78.8962 81.229 78.7699L90.211 73.8199C90.4455 73.6902 90.6409 73.5 90.777 73.2692C90.9131 73.0384 90.9848 72.7753 90.9848 72.5074C90.9848 72.2394 90.9131 71.9764 90.777 71.7456C90.6409 71.5148 90.4455 71.3246 90.211 71.1949Z" fill="#2B788B"/>
<path d="M51.994 108V95.4H57.448C58.576 95.4 59.548 95.586 60.364 95.958C61.18 96.318 61.81 96.84 62.254 97.524C62.698 98.208 62.92 99.024 62.92 99.972C62.92 100.908 62.698 101.718 62.254 102.402C61.81 103.086 61.18 103.614 60.364 103.986C59.548 104.346 58.576 104.526 57.448 104.526H53.614L54.91 103.212V108H51.994ZM54.91 103.536L53.614 102.15H57.286C58.186 102.15 58.858 101.958 59.302 101.574C59.746 101.19 59.968 100.656 59.968 99.972C59.968 99.276 59.746 98.736 59.302 98.352C58.858 97.968 58.186 97.776 57.286 97.776H53.614L54.91 96.39V103.536ZM64.2596 108V94.644H67.0676V108H64.2596ZM74.8937 108V106.11L74.7137 105.696V102.312C74.7137 101.712 74.5277 101.244 74.1557 100.908C73.7957 100.572 73.2377 100.404 72.4817 100.404C71.9657 100.404 71.4557 100.488 70.9517 100.656C70.4597 100.812 70.0397 101.028 69.6917 101.304L68.6837 99.342C69.2117 98.97 69.8477 98.682 70.5917 98.478C71.3357 98.274 72.0917 98.172 72.8597 98.172C74.3357 98.172 75.4817 98.52 76.2977 99.216C77.1137 99.912 77.5217 100.998 77.5217 102.474V108H74.8937ZM71.9417 108.144C71.1857 108.144 70.5377 108.018 69.9977 107.766C69.4577 107.502 69.0437 107.148 68.7557 106.704C68.4677 106.26 68.3237 105.762 68.3237 105.21C68.3237 104.634 68.4617 104.13 68.7377 103.698C69.0257 103.266 69.4757 102.93 70.0877 102.69C70.6997 102.438 71.4977 102.312 72.4817 102.312H75.0557V103.95H72.7877C72.1277 103.95 71.6717 104.058 71.4197 104.274C71.1797 104.49 71.0597 104.76 71.0597 105.084C71.0597 105.444 71.1977 105.732 71.4737 105.948C71.7617 106.152 72.1517 106.254 72.6437 106.254C73.1117 106.254 73.5317 106.146 73.9037 105.93C74.2757 105.702 74.5457 105.372 74.7137 104.94L75.1457 106.236C74.9417 106.86 74.5697 107.334 74.0297 107.658C73.4897 107.982 72.7937 108.144 71.9417 108.144ZM80.3913 111.636C79.8873 111.636 79.3893 111.558 78.8973 111.402C78.4053 111.246 78.0033 111.03 77.6913 110.754L78.7173 108.756C78.9333 108.948 79.1793 109.098 79.4553 109.206C79.7433 109.314 80.0253 109.368 80.3013 109.368C80.6973 109.368 81.0093 109.272 81.2373 109.08C81.4773 108.9 81.6933 108.594 81.8853 108.162L82.3893 106.974L82.6053 106.668L86.0793 98.316H88.7793L84.4053 108.594C84.0933 109.374 83.7333 109.986 83.3253 110.43C82.9293 110.874 82.4853 111.186 81.9933 111.366C81.5133 111.546 80.9793 111.636 80.3913 111.636ZM82.0473 108.378L77.7273 98.316H80.6253L83.9733 106.416L82.0473 108.378Z" fill="#2B788B"/>
</svg>
