<svg width="140" height="140" viewBox="0 0 140 140" fill="none" xmlns="http://www.w3.org/2000/svg">
<circle cx="70" cy="70" r="67.5" fill="#2B788B" stroke="#2B788B" stroke-width="5"/>
<rect width="48" height="73" transform="translate(46 33)" fill="#2B788B"/>
<path d="M84.369 40.2384C84.3126 39.9 84.1843 39.5776 83.9928 39.293C83.8012 39.0083 83.5509 38.7681 83.2586 38.5884C82.9663 38.4087 82.6389 38.2938 82.2985 38.2513C81.958 38.2089 81.6124 38.24 81.285 38.3424L64.485 43.5912C63.9965 43.7437 63.5695 44.0484 63.2664 44.4607C62.9633 44.873 62.8 45.3715 62.8002 45.8832V65.4C61.7189 64.589 60.3955 64.1669 59.0443 64.202C57.6931 64.2371 56.3934 64.7274 55.3557 65.5935C54.318 66.4595 53.6031 67.6506 53.3269 68.9737C53.0506 70.2968 53.2292 71.6744 53.8336 72.8833C54.4381 74.0922 55.433 75.0616 56.6573 75.6345C57.8815 76.2073 59.2633 76.35 60.5787 76.0395C61.8942 75.729 63.0663 74.9834 63.905 73.9235C64.7438 72.8636 65.2002 71.5516 65.2002 70.2V53.0832L82.0002 47.832V54.6552C82.8234 54.7272 83.6274 54.8784 84.4002 55.0968V40.632C84.4002 40.4976 84.3882 40.368 84.369 40.2384ZM91.6002 67.8C91.6002 70.6643 90.4623 73.4114 88.437 75.4368C86.4116 77.4621 83.6645 78.6 80.8002 78.6C77.9359 78.6 75.1888 77.4621 73.1635 75.4368C71.1381 73.4114 70.0002 70.6643 70.0002 67.8C70.0002 64.9357 71.1381 62.1886 73.1635 60.1632C75.1888 58.1379 77.9359 57 80.8002 57C83.6645 57 86.4116 58.1379 88.437 60.1632C90.4623 62.1886 91.6002 64.9357 91.6002 67.8ZM86.169 66.756L78.9834 62.796C78.8008 62.695 78.595 62.6434 78.3864 62.6462C78.1777 62.649 77.9734 62.7062 77.7936 62.8121C77.6138 62.918 77.4647 63.0689 77.3611 63.25C77.2575 63.4311 77.2028 63.6361 77.2026 63.8448V71.7648C77.2024 71.9737 77.2567 72.179 77.3602 72.3604C77.4637 72.5418 77.6127 72.6931 77.7926 72.7993C77.9725 72.9055 78.1769 72.9629 78.3858 72.9658C78.5946 72.9687 78.8006 72.9171 78.9834 72.816L86.169 68.856C86.3566 68.7522 86.5129 68.6001 86.6218 68.4155C86.7306 68.2308 86.7881 68.0204 86.7881 67.806C86.7881 67.5916 86.7306 67.3812 86.6218 67.1966C86.5129 67.0119 86.3566 66.8598 86.169 66.756Z" fill="#F6F5F4"/>
<path d="M57.448 87.4C58.564 87.4 59.53 87.586 60.346 87.958C61.174 88.33 61.81 88.858 62.254 89.542C62.698 90.226 62.92 91.036 62.92 91.972C62.92 92.896 62.698 93.706 62.254 94.402C61.81 95.086 61.174 95.614 60.346 95.986C59.53 96.346 58.564 96.526 57.448 96.526H54.91V100H51.994V87.4H57.448ZM57.286 94.15C58.162 94.15 58.828 93.964 59.284 93.592C59.74 93.208 59.968 92.668 59.968 91.972C59.968 91.264 59.74 90.724 59.284 90.352C58.828 89.968 58.162 89.776 57.286 89.776H54.91V94.15H57.286ZM64.2596 86.644H67.0676V100H64.2596V86.644ZM72.8597 90.172C74.3597 90.172 75.5117 90.532 76.3157 91.252C77.1197 91.96 77.5217 93.034 77.5217 94.474V100H74.8937V98.794C74.3657 99.694 73.3817 100.144 71.9417 100.144C71.1977 100.144 70.5497 100.018 69.9977 99.766C69.4577 99.514 69.0437 99.166 68.7557 98.722C68.4677 98.278 68.3237 97.774 68.3237 97.21C68.3237 96.31 68.6597 95.602 69.3317 95.086C70.0157 94.57 71.0657 94.312 72.4817 94.312H74.7137C74.7137 93.7 74.5277 93.232 74.1557 92.908C73.7837 92.572 73.2257 92.404 72.4817 92.404C71.9657 92.404 71.4557 92.488 70.9517 92.656C70.4597 92.812 70.0397 93.028 69.6917 93.304L68.6837 91.342C69.2117 90.97 69.8417 90.682 70.5737 90.478C71.3177 90.274 72.0797 90.172 72.8597 90.172ZM72.6437 98.254C73.1237 98.254 73.5497 98.146 73.9217 97.93C74.2937 97.702 74.5577 97.372 74.7137 96.94V95.95H72.7877C71.6357 95.95 71.0597 96.328 71.0597 97.084C71.0597 97.444 71.1977 97.732 71.4737 97.948C71.7617 98.152 72.1517 98.254 72.6437 98.254ZM88.7793 90.316L84.4053 100.594C83.9613 101.71 83.4093 102.496 82.7493 102.952C82.1013 103.408 81.3153 103.636 80.3913 103.636C79.8873 103.636 79.3893 103.558 78.8973 103.402C78.4053 103.246 78.0033 103.03 77.6913 102.754L78.7173 100.756C78.9333 100.948 79.1793 101.098 79.4553 101.206C79.7433 101.314 80.0253 101.368 80.3013 101.368C80.6853 101.368 80.9973 101.272 81.2373 101.08C81.4773 100.9 81.6933 100.594 81.8853 100.162L81.9213 100.072L77.7273 90.316H80.6253L83.3433 96.886L86.0793 90.316H88.7793Z" fill="#F6F5F4"/>
</svg>
